<svg width="138" height="138" viewBox="0 0 138 138" fill="none" xmlns="http://www.w3.org/2000/svg">
<path d="M117.139 20.4124C116.334 19.6256 115.883 18.56 115.883 17.4495V3.83067C115.883 1.72198 114.135 0.0134411 111.978 0.0134411H99.2819C97.1245 0.0134411 95.3765 1.72198 95.3765 3.83067V16.222C95.3765 18.3307 97.1245 20.0393 99.2819 20.0393H113.206C114.347 20.0483 115.442 20.5024 116.237 21.2982C117.042 22.085 117.493 23.1506 117.493 24.2611V102.728C117.493 104.837 119.241 106.545 121.399 106.545H134.095C136.252 106.545 138 104.837 138 102.728V25.4571C138 23.3484 136.252 21.6399 134.095 21.6399H120.166C119.03 21.6399 117.939 21.1948 117.139 20.4124V20.4124Z" fill="black"/>
<path d="M21.7626 64.5466C22.5676 63.7643 23.6532 63.3282 24.7848 63.3282H59.2387C61.3869 63.3282 63.1303 61.6241 63.1303 59.5244V45.8696C63.1303 44.7681 63.5811 43.7115 64.3769 42.9337C65.1819 42.1513 66.2675 41.7152 67.3991 41.7152H81.3463C83.4944 41.7152 85.2379 40.0112 85.2379 37.9115V25.4347C85.2379 23.335 83.4944 21.6309 81.3463 21.6309H67.4313C65.0669 21.6309 63.1441 19.7561 63.1441 17.4405V3.80374C63.1441 1.70404 61.4007 0 59.2525 0H3.95601C1.77101 0 0.00460448 1.73101 0.00460448 3.86218V16.1771C0.00460448 18.3128 1.77561 20.0393 3.95601 20.0393H60.4669C62.8359 20.0393 64.7587 21.9142 64.7633 24.2342V39.0535C64.7633 40.164 64.3125 41.2251 63.5075 42.0075C62.7025 42.7898 61.6169 43.2259 60.4853 43.2259H26.0175C23.8694 43.2259 22.126 44.9299 22.126 47.0296V60.6754C22.126 61.7815 21.6798 62.8381 20.8794 63.6204C20.079 64.4027 18.998 64.8389 17.8664 64.8389H3.8916C1.74341 64.8389 0 66.5429 0 68.6426V81.0834C0 83.1831 1.74341 84.8872 3.8916 84.8872H17.848C18.9796 84.8872 20.0606 85.3233 20.861 86.1056C21.6614 86.8879 22.1076 87.9445 22.1076 89.0506V102.692C22.1076 104.792 23.851 106.496 25.9992 106.496H81.3187C83.5036 106.496 85.2701 104.765 85.2701 102.633V90.3635C85.2701 88.2278 83.499 86.5013 81.3187 86.5013H24.8032C23.6716 86.5013 22.586 86.0651 21.781 85.2828C20.9852 84.505 20.5344 83.4484 20.5344 82.3468V67.4871C20.5252 66.3855 20.9714 65.3244 21.7672 64.5421L21.7626 64.5466Z" fill="black"/>
<path d="M131.528 36.6206C131.431 36.7105 131.307 36.76 131.174 36.7645H129.232C129.099 36.7645 128.975 36.7105 128.878 36.6206C128.786 36.5262 128.736 36.4048 128.731 36.2744V26.9943C128.731 26.7156 128.496 26.4863 128.211 26.4863H126.629C126.344 26.4863 126.109 26.7156 126.109 26.9943V36.2744C126.109 36.4048 126.054 36.5262 125.962 36.6206C125.865 36.7105 125.741 36.76 125.608 36.7645H123.666C123.533 36.7645 123.409 36.7105 123.312 36.6206C123.22 36.5262 123.17 36.4048 123.165 36.2744V26.9943C123.165 26.7156 122.93 26.4863 122.645 26.4863H121.063C120.778 26.4863 120.543 26.7156 120.543 26.9943V36.1035C120.543 36.3823 120.778 36.6116 121.063 36.6116H122.825C122.958 36.6116 123.082 36.6656 123.179 36.7555C123.271 36.8499 123.321 36.9713 123.326 37.1017V38.8237C123.326 39.1024 123.561 39.3318 123.846 39.3318H125.428C125.713 39.3318 125.948 39.1024 125.948 38.8237V37.1017C125.948 36.9713 126.003 36.8499 126.095 36.7555C126.192 36.6656 126.316 36.6161 126.449 36.6116H128.391C128.524 36.6116 128.648 36.6656 128.745 36.7555C128.837 36.8499 128.887 36.9713 128.892 37.1017V38.8237C128.892 39.1024 129.127 39.3318 129.412 39.3318H130.994C131.279 39.3318 131.514 39.1024 131.514 38.8237V37.1017C131.514 36.9713 131.569 36.8499 131.661 36.7555C131.758 36.6656 131.882 36.6161 132.015 36.6116H133.777C134.062 36.6116 134.297 36.3823 134.297 36.1035V26.9943C134.297 26.7156 134.062 26.4863 133.777 26.4863H132.195C131.91 26.4863 131.675 26.7156 131.675 26.9943V36.2744C131.675 36.4048 131.624 36.5262 131.537 36.6206H131.528Z" fill="white"/>
<path d="M128.694 60.6305V58.859C128.694 58.6028 128.483 58.3959 128.22 58.3959H126.597C126.334 58.3959 126.123 58.6028 126.123 58.859V60.6126C126.123 60.7384 126.072 60.8553 125.985 60.9408L125.948 60.9767C125.861 61.0667 125.736 61.1161 125.612 61.1116H123.804C123.542 61.1116 123.331 61.3184 123.331 61.5747V68.2065C123.331 68.4628 123.542 68.6696 123.804 68.6696H125.598C125.727 68.6696 125.847 68.7191 125.934 68.8045L125.971 68.8405C126.063 68.9259 126.114 69.0473 126.109 69.1687V70.9222C126.109 71.1785 126.321 71.3853 126.583 71.3853H128.207C128.469 71.3853 128.68 71.1785 128.68 70.9222V69.1687C128.68 69.0428 128.731 68.9259 128.818 68.8405L128.855 68.8045C128.943 68.7146 129.067 68.6651 129.191 68.6696H130.985C131.247 68.6696 131.459 68.4628 131.459 68.2065V61.5972C131.459 61.3409 131.247 61.1341 130.985 61.1341H129.205C129.076 61.1341 128.956 61.0846 128.869 60.9992L128.832 60.9633C128.745 60.8733 128.694 60.7564 128.699 60.635L128.694 60.6305ZM128.759 68.7146L128.722 68.7506C128.634 68.8405 128.51 68.8899 128.386 68.8855H126.426C126.298 68.8855 126.178 68.836 126.091 68.7506L126.054 68.7146C125.962 68.6292 125.911 68.5078 125.916 68.3864V61.4353C125.916 61.3095 125.966 61.1925 126.054 61.1071L126.091 61.0712C126.178 60.9812 126.302 60.9318 126.426 60.9363H128.386C128.515 60.9363 128.634 60.9857 128.722 61.0712L128.759 61.1071C128.851 61.1925 128.901 61.3139 128.897 61.4353V68.3864C128.897 68.5123 128.846 68.6292 128.759 68.7146Z" fill="white"/>
<path d="M128.662 47.326L128.616 47.3709C128.529 47.4564 128.414 47.5013 128.29 47.5013H126.477C126.224 47.5013 126.017 47.299 126.017 47.0517V42.9153C126.017 42.668 125.81 42.4657 125.557 42.4657H123.901C123.648 42.4657 123.441 42.668 123.441 42.9153V54.7986C123.441 55.0459 123.648 55.2482 123.901 55.2482H125.557C125.81 55.2482 126.017 55.0459 126.017 54.7986V50.4643C126.017 50.217 126.224 50.0147 126.477 50.0147H128.294C128.418 50.0147 128.533 50.0641 128.621 50.1451L128.667 50.19C128.754 50.2754 128.8 50.3879 128.8 50.5093V54.7986C128.8 55.0459 129.007 55.2482 129.26 55.2482H130.916C131.174 55.2482 131.376 55.0459 131.376 54.7986V50.6621C131.376 50.4148 131.169 50.2125 130.916 50.2125H129.095C128.97 50.2125 128.855 50.163 128.768 50.0821L128.722 50.0372C128.635 49.9517 128.588 49.8393 128.588 49.7179V47.7936C128.588 47.6722 128.639 47.5598 128.722 47.4744L128.768 47.4294C128.855 47.344 128.97 47.299 129.095 47.299H130.907C131.165 47.299 131.367 47.0967 131.367 46.8494V42.9108C131.367 42.6635 131.16 42.4612 130.907 42.4612H129.251C128.993 42.4612 128.791 42.6635 128.791 42.9108V47.0068C128.791 47.1282 128.75 47.2496 128.662 47.335V47.326Z" fill="white"/>
<path d="M128.695 76.7715V75.0539C128.695 74.7752 128.46 74.5459 128.175 74.5459H126.615C126.33 74.5459 126.096 74.7752 126.096 75.0539V76.7715C126.096 76.9019 126.04 77.0232 125.948 77.1177C125.852 77.2076 125.728 77.257 125.594 77.2615H123.837C123.552 77.2615 123.317 77.4908 123.317 77.7696V87.0586C123.317 87.3374 123.552 87.5667 123.837 87.5667H125.396C125.682 87.5667 125.916 87.3374 125.916 87.0586V77.6032C125.916 77.4729 125.971 77.3515 126.063 77.257C126.16 77.1671 126.284 77.1177 126.418 77.1132H128.354C128.488 77.1132 128.612 77.1671 128.708 77.257C128.8 77.3515 128.851 77.4729 128.856 77.6032V87.0721C128.856 87.3509 129.09 87.5802 129.375 87.5802H130.935C131.22 87.5802 131.455 87.3509 131.455 87.0721V77.7831C131.455 77.5043 131.22 77.275 130.935 77.275H129.178C129.044 77.275 128.92 77.2211 128.823 77.1311C128.736 77.0322 128.69 76.9063 128.695 76.776V76.7715Z" fill="white"/>
<path d="M128.865 93.2901L128.837 93.2631C128.745 93.1732 128.695 93.0518 128.699 92.9259V91.1904C128.699 90.9296 128.483 90.7183 128.216 90.7183H126.611C126.344 90.7183 126.128 90.9296 126.128 91.1904V92.9259C126.128 93.0518 126.077 93.1732 125.99 93.2631L125.962 93.2901C125.87 93.38 125.746 93.4295 125.617 93.425H123.8C123.533 93.425 123.317 93.6363 123.317 93.8971V103.227C123.317 103.487 123.533 103.699 123.8 103.699H125.406C125.672 103.699 125.889 103.487 125.889 103.227V98.4562V96.0462L125.953 96.1092C126.045 96.1991 126.096 96.3205 126.091 96.4464V98.1864C126.091 98.4472 126.307 98.6585 126.574 98.6585H128.179C128.446 98.6585 128.662 98.4472 128.662 98.1864V96.4554C128.662 96.3295 128.713 96.2081 128.8 96.1182L128.865 96.0552V103.227C128.865 103.487 129.081 103.699 129.348 103.699H130.953C131.22 103.699 131.436 103.487 131.436 103.227V93.8836C131.436 93.6228 131.22 93.4115 130.953 93.4115H129.173C129.058 93.407 128.952 93.362 128.865 93.2856V93.2901ZM128.754 95.9878C128.662 96.0777 128.538 96.1272 128.409 96.1227H126.45C126.321 96.1227 126.197 96.0732 126.105 95.9878L126.073 95.9563C125.981 95.8664 125.93 95.745 125.935 95.6191V93.7352C125.935 93.6093 125.985 93.4879 126.073 93.398L126.105 93.3665C126.197 93.2766 126.321 93.2272 126.45 93.2316H128.396C128.524 93.2316 128.649 93.2811 128.741 93.3665L128.773 93.398C128.865 93.4879 128.915 93.6093 128.911 93.7352V95.6461C128.911 95.7765 128.851 95.8979 128.75 95.9878H128.754Z" fill="white"/>
<path d="M122.167 123.747L124.996 121.71H115.524V133.953H124.996V131.912H118.229V128.778H124.002V126.741H118.229V123.747H122.167Z" fill="black"/>
<path d="M108.38 126.481H105.091V123.747H110.34L113.169 121.71H102.387V133.953H108.031C111.196 133.953 113.013 132.55 113.013 130.109C113.013 127.668 111.366 126.485 108.38 126.485V126.481ZM107.911 131.912H105.091V128.517H107.911C109.627 128.517 110.427 129.084 110.427 130.212C110.427 131.341 109.581 131.907 107.911 131.907V131.912Z" fill="black"/>
<path d="M132.668 121.71H127.512V133.953H130.212V130.487H132.664C135.953 130.487 138 128.796 138 126.094C138 123.392 135.957 121.715 132.664 121.715L132.668 121.71ZM132.609 128.445H130.212V123.747H132.609C134.338 123.747 135.295 124.583 135.295 126.094C135.295 127.605 134.343 128.441 132.609 128.441V128.445Z" fill="black"/>
<path d="M97.7498 131.3C97.0552 131.673 96.2502 131.871 95.4177 131.871C92.9797 131.871 91.2133 130.172 91.2133 127.829C91.2133 125.487 92.9797 123.787 95.4177 123.787C96.3376 123.787 97.1656 124.039 97.874 124.538L99.8106 123.14L99.6818 123.032C98.5502 122.061 97.0368 121.548 95.3072 121.548C93.4304 121.548 91.7284 122.164 90.514 123.288C89.2904 124.417 88.6189 126.004 88.6189 127.762C88.6189 129.52 89.2904 131.138 90.5094 132.303C91.733 133.472 93.4304 134.115 95.2934 134.115C97.1564 134.115 98.9412 133.449 100.096 132.244C99.208 131.601 98.3478 130.986 98.3478 130.986L97.7498 131.305V131.3Z" fill="black"/>
<path d="M82.3629 127.83C82.3629 127.209 82.3077 126.598 82.1973 126.009L79.9571 127.623C79.9571 127.69 79.9571 127.762 79.9571 127.83C79.9571 132.142 76.3691 135.653 71.9532 135.653C67.5372 135.653 63.9492 132.146 63.9492 127.83C63.9492 123.513 67.5372 120.006 71.9532 120.006C73.6275 120.006 75.1777 120.51 76.4657 121.373L78.4897 119.917C76.7049 118.505 74.4279 117.659 71.9532 117.659C66.2078 117.659 61.548 122.214 61.548 127.83C61.548 133.445 66.2078 138 71.9532 138C77.6985 138 82.3583 133.445 82.3583 127.83H82.3629Z" fill="black"/>
<path d="M80.1918 121.612C80.684 122.232 81.1026 122.911 81.4384 123.635L71.9578 130.465L67.9972 128.037V125.114L71.9578 127.542L80.1918 121.612Z" fill="black"/>
</svg>
